<?xml version="1.0" encoding="UTF-8" standalone="no" ?>
<!DOCTYPE svg PUBLIC "-//W3C//DTD SVG 1.1//EN" "http://www.w3.org/Graphics/SVG/1.1/DTD/svg11.dtd">
<svg xmlns="http://www.w3.org/2000/svg" xmlns:xlink="http://www.w3.org/1999/xlink" version="1.1" width="97.75" height="97.75" viewBox="0 0 97.75 97.75" xml:space="preserve">
<desc>Created with Fabric.js 4.6.0</desc>
<defs>
</defs>
<g transform="matrix(1 0 0 1 48.88 48.88)" id="D-DccGBTt0EAgpqLKL_SI"  >
<path style="stroke: none; stroke-width: 1; stroke-dasharray: none; stroke-linecap: butt; stroke-dashoffset: 0; stroke-linejoin: miter; stroke-miterlimit: 4; fill: rgb(255,255,255); fill-rule: nonzero; opacity: 1;" vector-effect="non-scaling-stroke"  transform=" translate(-48.88, -48.88)" d="M 48.875 0 C 21.882 0 0 21.882 0 48.875 C 0 75.868 21.882 97.75 48.875 97.75 C 75.868 97.75 97.75 75.868 97.75 48.875 C 97.75 21.882000000000005 75.868 0 48.875 0 z M 67.521 24.89 L 60.761 24.893 C 55.46 24.893 54.435 27.412 54.435 31.108 L 54.435 39.258 L 67.07600000000001 39.258 L 67.07 52.023 L 54.436 52.023 L 54.436 84.781 L 41.251 84.781 L 41.251 52.023 L 30.229 52.023 L 30.229 39.258 L 41.251 39.258 L 41.251 29.844 C 41.251 18.919 47.925999999999995 12.969000000000001 57.671 12.969000000000001 L 67.522 12.984000000000002 L 67.522 24.89 L 67.521 24.89 z" stroke-linecap="round" />
</g>
</svg>