<?xml version="1.0" encoding="UTF-8" standalone="no" ?>
<!DOCTYPE svg PUBLIC "-//W3C//DTD SVG 1.1//EN" "http://www.w3.org/Graphics/SVG/1.1/DTD/svg11.dtd">
<svg xmlns="http://www.w3.org/2000/svg" xmlns:xlink="http://www.w3.org/1999/xlink" version="1.1" width="640" height="640" viewBox="0 0 640 640" xml:space="preserve">
<desc>Created with Fabric.js 4.6.0</desc>
<defs>
</defs>
<g transform="matrix(1 0 0 1 318.86 318.86)" id="xUoK0ZDYARpvvjoxbd_TD"  >
<path style="stroke: none; stroke-width: 1; stroke-dasharray: none; stroke-linecap: butt; stroke-dashoffset: 0; stroke-linejoin: miter; stroke-miterlimit: 4; fill: rgb(255,255,255); fill-rule: nonzero; opacity: 1;" vector-effect="non-scaling-stroke"  transform=" translate(-320, -320)" d="M 320 0 C 143.2693 0 0 143.264 0 320 C 0 496.736 143.2693 640 320 640 C 496.7307 640 640 496.736 640 320 C 640 143.264 496.72749999999996 0 320 0 z M 400.3637 320 C 400.3637 400.3029 335.0346 465.632 254.7317 465.632 C 174.4288 465.632 109.09969999999998 400.3029 109.09969999999998 320 C 109.09969999999998 239.6971 174.42879999999997 174.368 254.7317 174.368 C 287.13059999999996 174.368 317.824 184.7968 343.4944 204.5291 L 309.6821 248.512 C 293.79519999999997 236.2997 274.79359999999997 229.8443 254.7328 229.8443 C 205.0219 229.8443 164.5803 270.28700000000003 164.5803 319.9968 C 164.5803 369.7077 205.023 410.14930000000004 254.7328 410.14930000000004 C 294.7701 410.14930000000004 328.7957 383.91460000000006 340.5216 347.73440000000005 L 254.7328 347.73440000000005 L 254.7328 292.25810000000007 L 400.3648 292.25810000000007 z M 553.6875 338.1355 L 511.9712 338.1355 L 511.9712 379.8582 L 475.6949 379.8582 L 475.6949 338.1355 L 433.9957 338.1355 L 433.9957 301.8624 L 475.6949 301.8624 L 475.6949 260.1429 L 511.9712 260.1429 L 511.9712 301.8656 L 553.6875 301.8656 z" stroke-linecap="round" />
</g>
</svg>