<?xml version="1.0" encoding="UTF-8" standalone="no" ?>
<!DOCTYPE svg PUBLIC "-//W3C//DTD SVG 1.1//EN" "http://www.w3.org/Graphics/SVG/1.1/DTD/svg11.dtd">
<svg xmlns="http://www.w3.org/2000/svg" xmlns:xlink="http://www.w3.org/1999/xlink" version="1.1" width="20" height="20" viewBox="0 0 20 20" xml:space="preserve">
<desc>Created with Fabric.js 4.6.0</desc>
<defs>
</defs>
<g transform="matrix(1 0 0 1 10 10)" id="pYHuG2kRHGqcFFbmo9_GA"  >
<path style="stroke: none; stroke-width: 1; stroke-dasharray: none; stroke-linecap: butt; stroke-dashoffset: 0; stroke-linejoin: miter; stroke-miterlimit: 4; fill: rgb(255,255,255); fill-rule: nonzero; opacity: 1;" vector-effect="non-scaling-stroke"  transform=" translate(-10, -10)" d="M 10 0.4 C 4.698 0.4 0.4 4.698 0.4 10 C 0.4 15.302 4.698 19.6 10 19.6 C 15.302 19.6 19.6 15.302000000000001 19.6 10.000000000000002 C 19.6 4.698000000000002 15.302 0.4 10 0.4 z M 7.65 13.979 L 5.706 13.979 L 5.706 7.723 L 7.65 7.723 L 7.65 13.979 z M 6.666 6.954999999999999 C 6.0520000000000005 6.954999999999999 5.655 6.52 5.655 5.981999999999999 C 5.655 5.432999999999999 6.064 5.010999999999999 6.691000000000001 5.010999999999999 C 7.318000000000001 5.010999999999999 7.702000000000001 5.432999999999999 7.714 5.981999999999999 C 7.714 6.52 7.3180000000000005 6.954999999999999 6.666 6.954999999999999 z M 14.75 13.979 L 12.806000000000001 13.979 L 12.806000000000001 10.511999999999999 C 12.806000000000001 9.704999999999998 12.524000000000001 9.156999999999998 11.821000000000002 9.156999999999998 C 11.284 9.156999999999998 10.965000000000002 9.527999999999999 10.824000000000002 9.884999999999998 C 10.772000000000002 10.011999999999999 10.759000000000002 10.191999999999998 10.759000000000002 10.370999999999999 L 10.759000000000002 13.977999999999998 L 8.814 13.977999999999998 L 8.814 9.717999999999998 C 8.814 8.936999999999998 8.789 8.283999999999999 8.763 7.721999999999998 L 10.452 7.721999999999998 L 10.541 8.590999999999998 L 10.58 8.590999999999998 C 10.836 8.182999999999998 11.463000000000001 7.580999999999998 12.512 7.580999999999998 C 13.791 7.580999999999998 14.75 8.437999999999997 14.75 10.279999999999998 L 14.75 13.978999999999997 z" stroke-linecap="round" />
</g>
</svg>