<?xml version="1.0" encoding="UTF-8" standalone="no" ?>
<!DOCTYPE svg PUBLIC "-//W3C//DTD SVG 1.1//EN" "http://www.w3.org/Graphics/SVG/1.1/DTD/svg11.dtd">
<svg xmlns="http://www.w3.org/2000/svg" xmlns:xlink="http://www.w3.org/1999/xlink" version="1.1" width="260" height="260" viewBox="0 0 260 260" xml:space="preserve">
<desc>Created with Fabric.js 4.6.0</desc>
<defs>
</defs>
<g transform="matrix(1 0 0 1 130 130)" id="F44uTVFlSgWYZV8sPd1Ph"  >
<path style="stroke: none; stroke-width: 1; stroke-dasharray: none; stroke-linecap: butt; stroke-dashoffset: 0; stroke-linejoin: miter; stroke-miterlimit: 4; fill: rgb(255,255,255); fill-rule: nonzero; opacity: 1;" vector-effect="non-scaling-stroke"  transform=" translate(-130, -130)" d="M 130 2 C 59.31 2 2 59.31 2 130 C 2 200.69 59.31 258 130 258 C 200.69 258 258 200.69 258 130 C 258 59.31 200.69 2 130 2 z M 194.08 97.09 L 194.19000000000003 101.37 C 194.19000000000003 151.99 160.93000000000004 195.5 100.07000000000002 195.5 C 81.38000000000002 195.5 64.00000000000003 190.02 49.36000000000002 180.61 C 51.95000000000002 180.91000000000003 54.58000000000002 181.07000000000002 57.25000000000002 181.07000000000002 C 72.75000000000003 181.07000000000002 87.02000000000002 175.8 98.33000000000001 166.93 C 83.86000000000001 166.67000000000002 71.9 157.85 67.69000000000001 144.70000000000002 C 72.80000000000001 145.52 78.95000000000002 144.82000000000002 82.38000000000001 143.41000000000003 C 74.82000000000001 141.88000000000002 68.19000000000001 137.78000000000003 63.44000000000001 132.05 C 58.70000000000001 126.33000000000001 55.85000000000001 118.98000000000002 55.85000000000001 110.97000000000001 C 60.31000000000001 113.45000000000002 65.41000000000001 114.52000000000001 70.83000000000001 114.71000000000001 C 61.960000000000015 108.78 56.12000000000001 98.65 56.12000000000001 87.17000000000002 C 56.12000000000001 81.11000000000001 57.74000000000001 75.42000000000002 60.59000000000001 70.55000000000001 C 76.91000000000001 90.56000000000002 101.29000000000002 103.73000000000002 128.78 105.11000000000001 C 128.21 102.69000000000001 127.92 100.16000000000001 127.92 97.57000000000001 C 127.92 79.31 142.74 64.5 161.01 64.5 C 170.53 64.5 178.54999999999998 68.49 184.12 73.92 C 190.37 73.71000000000001 199 70.71000000000001 206.17000000000002 66.92 C 203.70000000000002 74.63 198.46 81.12 191.63000000000002 85.21000000000001 C 198.32000000000002 84.95 204.06000000000003 83.56 209.99 80.93 C 205.57 87.56 200.58 92.46 194.08 97.09 z" stroke-linecap="round" />
</g>
</svg>